<svg width="24" height="24" viewBox="0 0 24 24" fill="none" xmlns="http://www.w3.org/2000/svg">
<g clip-path="url(#clip0_55_498)">
<path d="M8.8499 13.7625H1.0874L4.9499 3.9375L8.8499 13.7625ZM2.0999 13.05H7.8374L4.9499 5.7375L2.0999 13.05ZM22.9124 13.7625H15.1499L19.0124 3.9375L22.9124 13.7625ZM16.1624 13.05H21.8999L19.0124 5.7375L16.1624 13.05Z" fill="#8F939D"/>
<path d="M18.8624 3.825C18.8624 3.825 18.0374 3.525 17.5874 3.3375C15.9749 2.6625 13.9874 1.875 11.9999 1.875C10.0124 1.875 8.0249 2.7 6.4124 3.375C5.9624 3.5625 5.1374 3.8625 5.1374 3.8625L3.8999 4.8C3.8999 4.8 4.9124 5.4375 5.3999 5.25C5.8124 5.1 6.2249 4.9125 6.7124 4.725C8.2499 4.0875 10.1624 3.3 11.9999 3.3C13.8374 3.3 15.7499 4.0875 17.2874 4.725C17.7374 4.9125 18.1874 5.1 18.5999 5.25C19.1249 5.4375 20.0999 4.8 20.0999 4.8L18.8624 3.825Z" fill="#606573"/>
<path d="M0.75 13.0498C0.75 15.3748 2.625 17.2498 4.95 17.2498C7.275 17.2498 9.15 15.3748 9.15 13.0498H0.75ZM14.8125 13.0498C14.8125 15.3748 16.6875 17.2498 19.0125 17.2498C21.3375 17.2498 23.25 15.3748 23.25 13.0498H14.8125Z" fill="#2260FF"/>
<path d="M11.2876 4.6123H12.7126V20.0623H11.2876V4.6123Z" fill="#606573"/>
<path d="M10.875 6.9751H13.1625V20.0626H10.875V6.9751Z" fill="#8F939D"/>
<path d="M10.3875 13.7627H13.6125V21.1502H10.3875V13.7627Z" fill="#2E3A57"/>
<path d="M4.9499 6.3749C5.73691 6.3749 6.3749 5.73691 6.3749 4.9499C6.3749 4.1629 5.73691 3.5249 4.9499 3.5249C4.1629 3.5249 3.5249 4.1629 3.5249 4.9499C3.5249 5.73691 4.1629 6.3749 4.9499 6.3749Z" fill="#2260FF"/>
<path d="M19.05 6.3749C19.837 6.3749 20.475 5.73691 20.475 4.9499C20.475 4.1629 19.837 3.5249 19.05 3.5249C18.263 3.5249 17.625 4.1629 17.625 4.9499C17.625 5.73691 18.263 6.3749 19.05 6.3749Z" fill="#2E3A57"/>
<path d="M4.9499 6.3749C5.73691 6.3749 6.3749 5.73691 6.3749 4.9499C6.3749 4.1629 5.73691 3.5249 4.9499 3.5249C4.1629 3.5249 3.5249 4.1629 3.5249 4.9499C3.5249 5.73691 4.1629 6.3749 4.9499 6.3749Z" fill="#2E3A57"/>
<path d="M4.95005 5.6623C5.34355 5.6623 5.66255 5.34331 5.66255 4.9498C5.66255 4.5563 5.34355 4.2373 4.95005 4.2373C4.55655 4.2373 4.23755 4.5563 4.23755 4.9498C4.23755 5.34331 4.55655 5.6623 4.95005 5.6623Z" fill="white"/>
<path d="M19.0501 5.6623C19.4436 5.6623 19.7626 5.34331 19.7626 4.9498C19.7626 4.5563 19.4436 4.2373 19.0501 4.2373C18.6566 4.2373 18.3376 4.5563 18.3376 4.9498C18.3376 5.34331 18.6566 5.6623 19.0501 5.6623Z" fill="white"/>
<path d="M11.9999 4.95C13.1597 4.95 14.0999 4.0098 14.0999 2.85C14.0999 1.6902 13.1597 0.75 11.9999 0.75C10.8401 0.75 9.8999 1.6902 9.8999 2.85C9.8999 4.0098 10.8401 4.95 11.9999 4.95Z" fill="#8F939D"/>
<path d="M12 16.9126C8.8875 16.9126 6.375 18.4876 6.375 20.4376H17.625C17.625 18.4876 15.1125 16.9126 12 16.9126Z" fill="#8F939D"/>
<path d="M5.6626 20.4375H18.3376V21.8625H5.6626V20.4375Z" fill="#2E3A57"/>
<path d="M4.2749 21.8252H19.7249V23.2502H4.2749V21.8252Z" fill="#606573"/>
</g>
<defs>
<clipPath id="clip0_55_498">
<rect width="24" height="24" fill="white"/>
</clipPath>
</defs>
</svg>
