<svg width="24" height="24" viewBox="0 0 24 24" fill="none" xmlns="http://www.w3.org/2000/svg">
<g clip-path="url(#clip0_55_527)">
<path d="M6.83324 7.11279C7.73317 7.11325 8.59608 7.47106 9.23226 8.10756C9.86844 8.74406 10.2258 9.60716 10.2258 10.5071V19.0888C10.2285 19.6143 10.1245 20.1349 9.92011 20.619C9.71576 21.1032 9.41529 21.5408 9.03691 21.9055C8.65852 22.2701 8.21007 22.5542 7.71872 22.7406C7.22736 22.9269 6.7033 23.0116 6.17826 22.9895C5.65321 22.9675 5.1381 22.8391 4.6641 22.6122C4.1901 22.3854 3.76706 22.0646 3.42059 21.6695C3.07412 21.2744 2.81142 20.8131 2.64839 20.3135C2.48536 19.814 2.42538 19.2865 2.4721 18.7631C1.66296 17.8939 1.1521 16.6202 1.1521 15.2042C1.1521 13.2739 2.1001 11.6128 3.45953 10.8739C3.40801 10.4001 3.45687 9.92071 3.60292 9.467C3.74897 9.0133 3.98894 8.59543 4.3072 8.24062C4.62546 7.88581 5.01488 7.60201 5.45011 7.40769C5.88534 7.21337 6.35661 7.11289 6.83324 7.11279Z" fill="#E4EAFF"/>
<path d="M13.6184 7.11304C12.7182 7.11304 11.8548 7.47065 11.2183 8.10721C10.5817 8.74376 10.2241 9.60711 10.2241 10.5073V19.089C10.2241 19.6129 10.33 20.1314 10.5355 20.6133C10.741 21.0952 11.0419 21.5305 11.42 21.8932C11.7981 22.2558 12.2457 22.5381 12.7357 22.7233C13.2258 22.9085 13.7483 22.9926 14.2717 22.9706C14.7951 22.9486 15.3087 22.821 15.7815 22.5954C16.2543 22.3698 16.6766 22.0509 17.023 21.6578C17.3694 21.2648 17.6327 20.8058 17.7971 20.3083C17.9615 19.8109 18.0235 19.2854 17.9795 18.7633C18.787 17.8942 19.2978 16.6205 19.2978 15.2045C19.2978 13.2742 18.3515 11.613 16.9921 10.8742C17.0058 10.7542 17.0127 10.6313 17.0127 10.5056C17.0127 9.60539 16.6551 8.74204 16.0185 8.10549C15.382 7.46894 14.5186 7.11133 13.6184 7.11133" fill="#E4EAFF"/>
<path d="M13.8207 8.47761C13.9081 9.30047 14.5699 9.96219 15.3927 10.0548C16.0459 10.1285 16.7179 10.1919 17.4019 10.1919C18.0876 10.1919 18.7561 10.1285 19.411 10.0548C20.2339 9.96219 20.8939 9.30047 20.983 8.47761C21.0533 7.8279 21.1133 7.16104 21.1133 6.48047C21.1133 5.7999 21.0533 5.13133 20.983 4.48333C20.9374 4.08163 20.7572 3.70718 20.4718 3.42084C20.1864 3.1345 19.8126 2.95312 19.411 2.90619C18.7579 2.83247 18.0859 2.76904 17.4019 2.76904C16.7161 2.76904 16.0459 2.83247 15.3927 2.90619C14.5699 2.99876 13.9081 3.66047 13.8207 4.48333C13.7504 5.13133 13.6887 5.7999 13.6887 6.48047C13.6887 7.16104 13.7504 7.8279 13.8207 8.47761Z" fill="white"/>
<path d="M11.9521 8.30252H13.8035M20.9932 8.30252H22.8464M19.2978 2.88024V1.02881M19.2978 11.9385V10.0871M11.9521 4.65795H13.8035M15.5058 2.88024V1.02881M20.9932 4.65795H22.8464M15.5058 11.9385V10.0871M19.2978 15.206C19.2978 16.622 18.7869 17.894 17.9778 18.7614C17.9881 18.8688 17.9932 18.9774 17.9932 19.0871C17.9932 20.1171 17.5841 21.105 16.8557 21.8333C16.1274 22.5616 15.1395 22.9708 14.1095 22.9708C13.0795 22.9708 12.0916 22.5616 11.3633 21.8333C10.635 21.105 10.2258 20.1171 10.2258 19.0871M3.43208 10.5088C3.43208 12.1991 4.71094 13.058 5.25094 13.1797M4.61665 18.6105C3.93094 18.6105 3.08751 19.0254 2.49951 19.5448M13.8207 8.47738C13.9081 9.30024 14.5698 9.96195 15.3927 10.0545C16.0458 10.1282 16.7178 10.1917 17.4018 10.1917C18.0875 10.1917 18.7561 10.1282 19.4109 10.0545C20.2338 9.96195 20.8938 9.30024 20.9829 8.47738C21.0532 7.82767 21.1132 7.16081 21.1132 6.48024C21.1132 5.79967 21.0532 5.13109 20.9829 4.48309C20.9373 4.0814 20.7572 3.70694 20.4718 3.4206C20.1864 3.13427 19.8125 2.95289 19.4109 2.90595C18.7578 2.83224 18.0858 2.76881 17.4018 2.76881C16.7161 2.76881 16.0458 2.83224 15.3927 2.90595C14.5698 2.99852 13.9081 3.66024 13.8207 4.48309C13.7504 5.13109 13.6887 5.79967 13.6887 6.48024C13.6887 7.16081 13.7504 7.82767 13.8207 8.47738Z" stroke="#2E3A57" stroke-linecap="round" stroke-linejoin="round"/>
<path d="M15.8298 18.6105C16.5172 18.6105 17.359 19.0254 17.9487 19.5448M6.83324 7.11279C6.3566 7.11289 5.88533 7.21337 5.4501 7.40769C5.01488 7.60201 4.62546 7.88581 4.3072 8.24062C3.98893 8.59543 3.74897 9.0133 3.60292 9.467C3.45687 9.92071 3.40801 10.4001 3.45952 10.8739C2.10009 11.6111 1.15381 13.2739 1.15381 15.2042C1.15381 16.6219 1.66295 17.8939 2.47209 18.7614C2.4312 19.2816 2.49559 19.8047 2.6614 20.2995C2.82722 20.7942 3.09106 21.2505 3.43717 21.641C3.78328 22.0316 4.20455 22.3483 4.67582 22.5724C5.14709 22.7964 5.65869 22.9232 6.18005 22.9451C6.70141 22.967 7.22183 22.8836 7.71023 22.6998C8.19863 22.5161 8.64498 22.2358 9.02263 21.8757C9.40027 21.5156 9.70145 21.083 9.90817 20.6039C10.1149 20.1248 10.2229 19.6089 10.2258 19.0871V14.7979" stroke="#2E3A57" stroke-linecap="round" stroke-linejoin="round"/>
</g>
<defs>
<clipPath id="clip0_55_527">
<rect width="24" height="24" fill="white"/>
</clipPath>
</defs>
</svg>
