<svg width="35" height="35" viewBox="0 0 35 35" fill="none" xmlns="http://www.w3.org/2000/svg">
<path d="M19.3047 24.9921C19.6328 27.0155 19.0312 29.7499 17.8828 30.0233C16.7343 30.2968 15.4218 27.9452 15.0937 25.9218C14.7656 23.8983 15.5859 22.8593 16.789 22.6405C17.9375 22.3671 19.0312 22.9686 19.3047 24.9921Z" fill="#2260FF"/>
<path d="M29.5859 6.17966C27.5078 6.17966 25.8672 3.82809 25.5938 4.92184C25.3203 6.17966 27.5078 8.58591 28.875 8.58591C28.875 8.58591 24.1719 11.9765 3.33594 11.9765C1.42187 11.9765 1.20312 14.3828 1.20312 14.3828C7.21875 20.125 16.3516 31.1718 25.5391 24.2812C29.8594 21 30.8438 10.664 30.8984 9.13278C33.4141 8.25778 33.9609 6.83591 33.9609 4.97653C33.9062 3.11716 32.6484 6.17966 29.5859 6.17966Z" fill="#2260FF"/>
<path d="M1.20318 14.4375C1.20318 14.4375 0.984429 16.2421 1.20318 17.7187C1.91412 22.039 5.30474 27.7812 14.8204 27.7812C20.7266 27.7812 21.9297 27.0156 24.5547 25.1015C24.9376 24.8281 25.2657 24.5546 25.5391 24.2812C17.2266 26.5234 10.9376 20.2343 10.9376 15.2578C10.9376 14.3828 4.48443 14.1093 1.20318 14.4375Z" fill="#E4EAFF"/>
<path d="M24.6642 24.8828C22.9142 25.6484 20.9454 26.0313 18.9767 25.9219C17.0079 25.8125 15.0938 25.2109 13.3985 24.2266C11.7032 23.2422 10.2267 21.8203 9.24228 20.125C8.20322 18.4297 7.65635 16.4609 7.76572 14.4375L8.80478 14.4922C8.64072 16.2969 9.07822 18.1562 9.95322 19.7422C10.8282 21.3828 12.1407 22.75 13.7267 23.7891C15.3126 24.8281 17.1173 25.4844 19.0313 25.6484C20.9454 25.8672 22.9142 25.5938 24.6642 24.8828Z" fill="#2E3A57"/>
<path d="M21.328 26.9609C19.3593 27.125 17.3905 27.0703 15.4765 26.6875C13.5624 26.3047 11.6483 25.5938 10.0077 24.4453C8.36709 23.2969 6.9999 21.8203 6.07022 20.0156C5.14053 18.2656 4.64834 16.2422 4.75772 14.2188L5.79678 14.2734C5.63272 16.0781 5.96084 17.9922 6.78115 19.6875C7.54678 21.3828 8.80459 22.8594 10.3358 24.0078C11.8671 25.1563 13.6718 25.9766 15.5312 26.4141C17.4452 26.9609 19.414 27.0703 21.328 26.9609Z" fill="#2E3A57"/>
<path d="M15.6953 27.7812C13.9453 27.5625 12.1953 27.2344 10.5547 26.6328C8.91406 26.0313 7.32812 25.1562 6.01562 23.9531C4.70312 22.75 3.66406 21.2734 3.00781 19.5781C2.35156 17.9375 2.02344 16.1328 2.02344 14.3828H3.0625C3.00781 16.0781 3.17188 17.7188 3.71875 19.3594C4.26562 20.9453 5.14062 22.4219 6.39844 23.625C7.60156 24.8281 9.07812 25.7578 10.6641 26.4688C12.25 27.0703 13.9453 27.5078 15.6953 27.7812Z" fill="#2E3A57"/>
<path d="M16.0234 16.0234C16.6879 16.0234 17.2266 15.4603 17.2266 14.7656C17.2266 14.071 16.6879 13.5078 16.0234 13.5078C15.359 13.5078 14.8203 14.071 14.8203 14.7656C14.8203 15.4603 15.359 16.0234 16.0234 16.0234Z" fill="#2E3A57"/>
<path d="M16.8438 14.7657C16.8438 15.2579 16.4609 15.6407 16.0234 15.6407C15.5859 15.6407 15.2031 15.2579 15.2031 14.7657C15.2031 14.2735 15.5859 13.8907 16.0234 13.8907C16.4609 13.836 16.8438 14.2188 16.8438 14.7657Z" fill="white"/>
<path d="M14.5469 15.6405C14.6016 15.6405 16.7891 17.1718 17.5 15.3124C17.8828 14.328 14.5469 15.6405 14.5469 15.6405Z" fill="#2260FF"/>
<path d="M16.0234 15.5859C16.1875 15.6406 16.2969 15.6406 16.4609 15.6406C16.625 15.6406 16.7891 15.6953 16.8984 15.8047C17.1719 16.0234 17.2266 16.3516 17.2813 16.625C17.2266 16.4609 17.1719 16.3516 17.1172 16.2422C17.0625 16.1328 16.9531 16.0234 16.8438 15.9141C16.7344 15.8594 16.5703 15.8047 16.4609 15.75C16.3516 15.75 16.1875 15.6953 16.0234 15.5859Z" fill="#2E3A57"/>
<path d="M1.20312 14.4375C2.51562 14.2187 3.82812 14.0547 5.19531 14.0547C6.5625 14 7.875 14.1094 9.24219 14.3828C10.5547 14.6562 11.8672 15.1484 13.0156 15.75C13.6172 16.0234 14.1641 16.4062 14.8203 16.5156C15.4219 16.625 16.0781 16.3516 16.6797 16.0234C16.1875 16.4609 15.5312 16.7891 14.8203 16.7344C14.1094 16.6797 13.5078 16.3516 12.9062 16.0781C11.7031 15.5312 10.4453 15.0937 9.1875 14.8203C7.92969 14.5469 6.5625 14.4375 5.25 14.3828C3.88281 14.3828 2.51562 14.3828 1.20312 14.4375Z" fill="#2E3A57"/>
<path d="M25.7032 24.172C26.086 26.797 25.3751 30.297 23.8985 30.6251C22.4219 30.9532 20.7266 28.0001 20.3438 25.3751C19.961 22.7501 21.0001 21.4923 22.4766 21.1642C23.9532 20.7814 25.3204 21.547 25.7032 24.172Z" fill="#2260FF"/>
</svg>
