<svg width="52" height="52" viewBox="0 0 52 52" fill="none" xmlns="http://www.w3.org/2000/svg">
<path d="M25.0593 34.1245C25.7933 33.9498 26.4575 34.0618 26.9832 34.4917C27.5207 34.9315 27.9919 35.7676 28.1853 37.1978V37.1987L28.1882 37.2114C28.4204 38.6429 28.3227 40.3403 27.9636 41.7183C27.7842 42.4068 27.5455 42.9913 27.2683 43.4165C26.9868 43.8484 26.7036 44.0599 26.4529 44.1196C26.2212 44.1747 25.9296 44.1134 25.5671 43.8462C25.2044 43.5787 24.824 43.1408 24.4617 42.5708C23.7386 41.433 23.1523 39.873 22.9187 38.4331C22.6868 37.0029 22.8729 35.9928 23.2634 35.3218C23.6476 34.662 24.2638 34.2693 25.033 34.1294L25.0466 34.1274L25.0593 34.1245Z" fill="white" stroke="#2E3A57"/>
<path d="M49.9331 7.10059C49.9426 7.17711 49.9527 7.27756 49.9565 7.4082C49.9551 8.73989 49.7562 9.84166 49.1636 10.7578C48.5721 11.672 47.5424 12.4704 45.7417 13.0967L45.4185 13.209L45.4067 13.5508C45.3672 14.6571 44.9858 19.0307 43.8169 23.7266C43.2328 26.0729 42.4552 28.4849 41.4341 30.6045C40.411 32.7279 39.1594 34.5229 37.644 35.6748C34.3233 38.1654 31.0336 39.0204 27.8276 38.7969C24.6074 38.5723 21.4319 37.257 18.3638 35.3369C12.2904 31.5361 6.79688 25.4828 2.31982 21.1865C2.33257 21.1119 2.3479 21.0215 2.37061 20.9199C2.43995 20.6096 2.55834 20.202 2.75439 19.8008C3.14586 18.9997 3.80018 18.2939 4.95654 18.2939C20.4595 18.2939 29.9838 17.0323 35.646 15.7627C38.4776 15.1278 40.3468 14.4908 41.5161 14.0059C42.1009 13.7633 42.5114 13.5581 42.7798 13.4111C42.9137 13.3378 43.0122 13.2787 43.0796 13.2363C43.1133 13.2151 43.1401 13.198 43.1587 13.1855C43.1678 13.1794 43.1755 13.1748 43.1812 13.1709C43.184 13.1689 43.186 13.1664 43.188 13.165C43.1889 13.1644 43.1902 13.1636 43.1909 13.1631H43.1919C43.1923 13.1627 43.1899 13.1591 42.8999 12.7568L43.1929 13.1621L44.4487 12.2568H42.8999C42.526 12.2568 42.0364 12.0858 41.4888 11.7441C40.9507 11.4084 40.4022 10.9352 39.9204 10.4004C39.4381 9.86499 39.0367 9.28401 38.7827 8.74023C38.5243 8.18706 38.4468 7.73578 38.5122 7.4248C38.5154 7.4127 38.521 7.40285 38.5239 7.39355C38.5308 7.39534 38.5392 7.396 38.5474 7.39844C38.6561 7.43074 38.8079 7.50273 39.0161 7.62305C39.2208 7.74132 39.4502 7.88873 39.7153 8.05859C40.7414 8.71608 42.2437 9.68164 43.9565 9.68164C46.4073 9.68158 48.1265 8.45127 49.1841 7.65039C49.4553 7.44502 49.6655 7.28152 49.8452 7.15918C49.8771 7.13748 49.9061 7.11763 49.9331 7.10059Z" fill="white" stroke="#2E3A57"/>
<path d="M1.78751 21.4499C1.78751 21.4499 1.46251 24.1312 1.78751 26.3249C2.84376 32.7437 7.88126 41.2749 22.0188 41.2749C30.7938 41.2749 32.5813 40.1374 36.4813 37.2937C37.05 36.8874 37.5375 36.4812 37.9438 36.0749C25.5938 39.4062 16.25 30.0624 16.25 22.6687C16.25 21.3687 6.66251 20.9624 1.78751 21.4499Z" fill="#E4EAFF"/>
<path d="M36.6438 36.9689C34.0438 38.1064 31.1188 38.6752 28.1938 38.5127C25.2688 38.3502 22.425 37.4564 19.9063 35.9939C17.3875 34.5314 15.1938 32.4189 13.7313 29.9002C12.1875 27.3814 11.375 24.4564 11.5375 21.4502L13.0813 21.5314C12.8375 24.2127 13.4875 26.9752 14.7875 29.3314C16.0875 31.7689 18.0375 33.8002 20.3938 35.3439C22.75 36.8877 25.4313 37.8627 28.275 38.1064C31.1188 38.4314 34.0438 38.0252 36.6438 36.9689Z" fill="#2E3A57"/>
<path d="M31.6875 40.0562C28.7625 40.3 25.8375 40.2187 22.9937 39.65C20.15 39.0812 17.3062 38.025 14.8687 36.3187C12.4312 34.6125 10.4 32.4187 9.01873 29.7375C7.63748 27.1375 6.90623 24.1312 7.06873 21.125L8.61248 21.2063C8.36873 23.8875 8.85623 26.7312 10.075 29.25C11.2125 31.7687 13.0812 33.9625 15.3562 35.6687C17.6312 37.375 20.3125 38.5937 23.075 39.2437C25.9187 40.0562 28.8437 40.2187 31.6875 40.0562Z" fill="#2E3A57"/>
<path d="M23.3188 41.2749C20.7188 40.9499 18.1188 40.4624 15.6813 39.5687C13.2438 38.6749 10.8876 37.3749 8.9376 35.5874C6.9876 33.7999 5.44385 31.6062 4.46885 29.0874C3.49385 26.6499 3.00635 23.9687 3.00635 21.3687H4.5501C4.46885 23.8874 4.7126 26.3249 5.5251 28.7624C6.3376 31.1187 7.6376 33.3124 9.50635 35.0999C11.2938 36.8874 13.4876 38.2687 15.8438 39.3249C18.2001 40.2187 20.7188 40.8687 23.3188 41.2749Z" fill="#2E3A57"/>
<path d="M23.8063 23.8063C24.7935 23.8063 25.5938 22.9697 25.5938 21.9376C25.5938 20.9055 24.7935 20.0688 23.8063 20.0688C22.8191 20.0688 22.0188 20.9055 22.0188 21.9376C22.0188 22.9697 22.8191 23.8063 23.8063 23.8063Z" fill="#2E3A57"/>
<path d="M25.0249 21.9376C25.0249 22.6689 24.4562 23.2376 23.8062 23.2376C23.1562 23.2376 22.5874 22.6689 22.5874 21.9376C22.5874 21.2064 23.1562 20.6376 23.8062 20.6376C24.4562 20.5564 25.0249 21.1251 25.0249 21.9376Z" fill="#2E3A57"/>
<path d="M21.6125 23.2375C21.6938 23.2375 24.9438 25.5125 26 22.75C26.5688 21.2875 21.6125 23.2375 21.6125 23.2375Z" fill="white"/>
<path d="M23.8064 23.1562C24.0501 23.2375 24.2126 23.2375 24.4564 23.2375C24.7001 23.2375 24.9439 23.3187 25.1064 23.4812C25.5126 23.8062 25.5939 24.2937 25.6751 24.7C25.5939 24.4562 25.5126 24.2938 25.4314 24.1313C25.3501 23.9688 25.1876 23.8063 25.0251 23.6438C24.8626 23.5625 24.6189 23.4812 24.4564 23.4C24.2939 23.4 24.0501 23.3188 23.8064 23.1562Z" fill="#2E3A57"/>
<path d="M1.7876 21.4499C3.7376 21.1249 5.6876 20.8812 7.71885 20.8812C9.7501 20.7999 11.7001 20.9624 13.7313 21.3687C15.6813 21.7749 17.6313 22.5062 19.3376 23.3999C20.2313 23.8062 21.0438 24.3749 22.0188 24.5374C22.9126 24.6999 23.8876 24.2937 24.7813 23.8062C24.0501 24.4562 23.0751 24.9437 22.0188 24.8624C20.9626 24.7812 20.0688 24.2937 19.1751 23.8874C17.3876 23.0749 15.5188 22.4249 13.6501 22.0187C11.7813 21.6124 9.7501 21.4499 7.8001 21.3687C5.76885 21.3687 3.7376 21.3687 1.7876 21.4499Z" fill="#2E3A57"/>
<path d="M33.5193 31.9282C34.4963 31.6749 35.3786 31.8108 36.0828 32.3892C36.8029 32.9809 37.4175 34.1016 37.6921 35.9849C37.9671 37.8701 37.8492 40.0792 37.3982 41.8638C37.1726 42.7563 36.8696 43.5179 36.5105 44.0737C36.1477 44.6352 35.7651 44.9305 35.3972 45.0122C35.0386 45.0917 34.6153 44.9856 34.1296 44.6313C33.6438 44.2769 33.1454 43.7071 32.6775 42.9761C31.7424 41.515 30.9941 39.5102 30.7195 37.6274C30.4454 35.7474 30.6917 34.4301 31.2058 33.5435C31.7138 32.6676 32.5187 32.1507 33.5017 31.9321L33.5193 31.9282Z" fill="white" stroke="#2E3A57"/>
</svg>
