<svg width="54" height="54" viewBox="0 0 54 54" fill="none" xmlns="http://www.w3.org/2000/svg">
<path d="M29.7844 38.5594C30.2906 41.6813 29.3625 45.9001 27.5906 46.3219C25.8187 46.7438 23.7937 43.1157 23.2875 39.9938C22.7812 36.8719 24.0469 35.2688 25.9031 34.9313C27.675 34.5094 29.3625 35.4376 29.7844 38.5594Z" fill="#2E3A57"/>
<path d="M45.6468 9.53447C42.4406 9.53447 39.9093 5.90634 39.4874 7.59384C39.0656 9.53447 42.4406 13.247 44.5499 13.247C44.5499 13.247 37.2937 18.4782 5.14683 18.4782C2.1937 18.4782 1.8562 22.1907 1.8562 22.1907C11.1375 31.0501 25.2281 48.0938 39.4031 37.4626C46.0687 32.4001 47.5875 16.4532 47.6718 14.0907C51.5531 12.7407 52.3968 10.547 52.3968 7.67822C52.3125 4.80947 50.3718 9.53447 45.6468 9.53447Z" fill="#2E3A57"/>
<path d="M1.8563 22.275C1.8563 22.275 1.5188 25.0594 1.8563 27.3375C2.95317 34.0031 8.18442 42.8625 22.8657 42.8625C31.9782 42.8625 33.8344 41.6812 37.8844 38.7281C38.4751 38.3062 38.9813 37.8844 39.4032 37.4625C26.5782 40.9219 16.875 31.2187 16.875 23.5406C16.875 22.1906 6.9188 21.7687 1.8563 22.275Z" fill="#E4EAFF"/>
<path d="M38.0531 38.391C35.3531 39.5723 32.3156 40.1629 29.2781 39.9941C26.2406 39.8254 23.2875 38.8973 20.6718 37.3785C18.0562 35.8598 15.7781 33.666 14.2593 31.0504C12.6562 28.4348 11.8125 25.3973 11.9812 22.2754L13.5843 22.3598C13.3312 25.1441 14.0062 28.0129 15.3562 30.4598C16.7062 32.991 18.7312 35.1004 21.1781 36.7035C23.625 38.3066 26.4093 39.3191 29.3625 39.5723C32.3156 39.9098 35.3531 39.4879 38.0531 38.391Z" fill="#2E3A57"/>
<path d="M32.9062 41.5969C29.8687 41.85 26.8312 41.7656 23.8781 41.175C20.925 40.5844 17.9718 39.4875 15.4406 37.7156C12.9093 35.9438 10.8 33.6656 9.36559 30.8812C7.93121 28.1812 7.17184 25.0594 7.34059 21.9375L8.94371 22.0219C8.69059 24.8063 9.19684 27.7594 10.4625 30.375C11.6437 32.9906 13.5843 35.2688 15.9468 37.0406C18.3093 38.8125 21.0937 40.0781 23.9625 40.7531C26.9156 41.5969 29.9531 41.7656 32.9062 41.5969Z" fill="#2E3A57"/>
<path d="M24.2156 42.8628C21.5156 42.5253 18.8156 42.019 16.2843 41.0909C13.7531 40.1628 11.3062 38.8128 9.2812 36.9565C7.2562 35.1003 5.65308 32.8222 4.64058 30.2065C3.62808 27.6753 3.12183 24.8909 3.12183 22.1909H4.72495C4.64058 24.8065 4.8937 27.3378 5.73745 29.869C6.5812 32.3159 7.9312 34.594 9.87183 36.4503C11.7281 38.3065 14.0062 39.7409 16.4531 40.8378C18.9 41.7659 21.5156 42.4409 24.2156 42.8628Z" fill="#2E3A57"/>
<path d="M24.7217 24.7221C25.7469 24.7221 26.578 23.8532 26.578 22.7814C26.578 21.7097 25.7469 20.8408 24.7217 20.8408C23.6965 20.8408 22.8655 21.7097 22.8655 22.7814C22.8655 23.8532 23.6965 24.7221 24.7217 24.7221Z" fill="#8F939D"/>
<path d="M25.9875 22.7814C25.9875 23.5407 25.3969 24.1314 24.7219 24.1314C24.0469 24.1314 23.4563 23.5407 23.4563 22.7814C23.4563 22.022 24.0469 21.4314 24.7219 21.4314C25.3969 21.347 25.9875 21.9376 25.9875 22.7814Z" fill="white"/>
<path d="M22.4438 24.1311C22.5282 24.1311 25.9032 26.4936 27.0001 23.6249C27.5907 22.1061 22.4438 24.1311 22.4438 24.1311Z" fill="#2E3A57"/>
<path d="M24.7219 24.0469C24.975 24.1312 25.1438 24.1313 25.3969 24.1313C25.65 24.1313 25.9032 24.2156 26.0719 24.3844C26.4938 24.7219 26.5782 25.2281 26.6625 25.65C26.5782 25.3969 26.4938 25.2281 26.4094 25.0594C26.325 24.8906 26.1563 24.7219 25.9875 24.5531C25.8188 24.4688 25.5657 24.3844 25.3969 24.3C25.2282 24.3 24.975 24.2156 24.7219 24.0469Z" fill="#2E3A57"/>
<path d="M1.8562 22.2748C3.8812 21.9373 5.9062 21.6842 8.01558 21.6842C10.125 21.5998 12.15 21.7686 14.2593 22.1904C16.2843 22.6123 18.3093 23.3717 20.0812 24.2998C21.0093 24.7217 21.8531 25.3123 22.8656 25.4811C23.7937 25.6498 24.8062 25.2279 25.7343 24.7217C24.975 25.3967 23.9625 25.9029 22.8656 25.8186C21.7687 25.7342 20.8406 25.2279 19.9125 24.8061C18.0562 23.9623 16.1156 23.2873 14.175 22.8654C12.2343 22.4436 10.125 22.2748 8.09995 22.1904C5.99058 22.1904 3.8812 22.1904 1.8562 22.2748Z" fill="#2E3A57"/>
<path d="M39.6562 37.2938C40.2468 41.3438 39.1499 46.7438 36.8718 47.2501C34.5937 47.7563 31.978 43.2001 31.3874 39.1501C30.7968 35.1001 32.3999 33.1594 34.678 32.6532C36.9562 32.0626 39.0655 33.2438 39.6562 37.2938Z" fill="#2E3A57"/>
</svg>
